# xmcd
#
# Track frame offsets: 
#        150
#        13254
#        24638
#        35960
#        47190
#        58290
#        70768
#        83253
#        100838
#        119026
#        138903
#        164517
#
# Disc length: 2450 seconds
#
# Revision: 0
# Processed by: cddbd v1.5.2PL0 Copyright (c) Steve Scherf et al.
# Submitted via: ExactAudioCopyFreeDBPlugin 1.0
#
DISCID=aa09900c
DTITLE=Various Artist - Black History Month
DYEAR=2011
DGENRE=Soul
TTITLE0=Ray Charles - I Got A Woman
TTITLE1=Doris Troy - Just One Look
TTITLE2=Solomon Burke - Cry To Me
TTITLE3=Wilson Pickett - In The Midnight Hour
TTITLE4=Aretha Franklin - Respect
TTITLE5=Sam and Dave - I Thank You
TTITLE6=Donny Hathaway - The Ghetto, Part 1
TTITLE7=Curtis Mayfield - Superfly
TTITLE8=Zapp - More Bounce To The Ounce
TTITLE9=Anita Baker - Sweet Love
TTITLE10=Gerald Levert and Eddie Levert - Baby Hold On To Me
TTITLE11=Trey Songz - One Love
EXTD=
EXTT0=
EXTT1=
EXTT2=
EXTT3=
EXTT4=
EXTT5=
EXTT6=
EXTT7=
EXTT8=
EXTT9=
EXTT10=
EXTT11=
PLAYORDER=
